HIERARCHY
ROOT Hips
{
	OFFSET 0.000000 0.000000 0.000000
	CHANNELS 6 Xposition Yposition Zposition Zrotation Yrotation Xrotation 
	JOINT LHipJoint
	{
		OFFSET 0.000000 0.000000 0.000000
		CHANNELS 3 Zrotation Yrotation Xrotation
		JOINT LeftUpLeg
		{
			OFFSET 8.178360 -10.767780 5.035740
			CHANNELS 3 Zrotation Yrotation Xrotation
			JOINT LeftLeg
			{
				OFFSET 14.688660 -40.356780 0.000000
				CHANNELS 3 Zrotation Yrotation Xrotation
				JOINT LeftFoot
				{
					OFFSET 15.373200 -42.237540 0.000000
					CHANNELS 3 Zrotation Yrotation Xrotation
					JOINT LeftToeBase
					{
						OFFSET 0.945840 -2.598660 13.935300
						CHANNELS 3 Zrotation Yrotation Xrotation
						End Site
						{
							OFFSET 0.000000 0.000000 0.000000
						}
					}
				}
			}
		}
	}
	JOINT RHipJoint
	{
		OFFSET 0.000000 0.000000 0.000000
		CHANNELS 3 Zrotation Yrotation Xrotation
		JOINT RightUpLeg
		{
			OFFSET -7.833120 -10.767780 5.035740
			CHANNELS 3 Zrotation Yrotation Xrotation
			JOINT RightLeg
			{
				OFFSET -15.255180 -41.913300 0.000000
				CHANNELS 3 Zrotation Yrotation Xrotation
				JOINT RightFoot
				{
					OFFSET -15.409560 -42.337380 0.000000
					CHANNELS 3 Zrotation Yrotation Xrotation
					JOINT RightToeBase
					{
						OFFSET -0.988380 -2.715540 14.178900
						CHANNELS 3 Zrotation Yrotation Xrotation
						End Site
						{
							OFFSET 0.000000 0.000000 0.000000
						}
					}
				}
			}
		}
	}
	JOINT LowerBack
	{
		OFFSET 0.000000 0.000000 0.000000
		CHANNELS 3 Zrotation Yrotation Xrotation
		JOINT Spine
		{
			OFFSET 0.169620 12.213540 -1.160280
			CHANNELS 3 Zrotation Yrotation Xrotation
			JOINT Spine1
			{
				OFFSET 0.340320 12.293100 -0.256500
				CHANNELS 3 Zrotation Yrotation Xrotation
				JOINT Neck
				{
					OFFSET 0.000000 0.000000 0.000000
					CHANNELS 3 Zrotation Yrotation Xrotation
					JOINT Neck1
					{
						OFFSET -0.325020 10.477440 1.032120
						CHANNELS 3 Zrotation Yrotation Xrotation
						JOINT Head
						{
							OFFSET 0.624420 10.568160 -0.743820
							CHANNELS 3 Zrotation Yrotation Xrotation
							End Site
							{
								OFFSET 0.000000 0.000000 0.000000
							}
						}
					}
				}
				JOINT LeftShoulder
				{
					OFFSET 0.000000 0.000000 0.000000
					CHANNELS 3 Zrotation Yrotation Xrotation
					JOINT LeftArm
					{
						OFFSET 20.174460 7.205340 -1.867260
						CHANNELS 3 Zrotation Yrotation Xrotation
						JOINT LeftForeArm
						{
							OFFSET 29.898000 -0.000000 -0.000000
							CHANNELS 3 Zrotation Yrotation Xrotation
							JOINT LeftHand
							{
								OFFSET 20.901360 -0.000000 -0.000000
								CHANNELS 3 Zrotation Yrotation Xrotation
								JOINT LeftFingerBase
								{
									OFFSET 0.000000 0.000000 0.000000
									CHANNELS 3 Zrotation Yrotation Xrotation
									JOINT LeftHandIndex1
									{
										OFFSET 4.291560 -0.000000 -0.000000
										CHANNELS 3 Zrotation Yrotation Xrotation
										End Site
										{
											OFFSET 0.000000 0.000000 0.000000
										}
									}
								}
								JOINT LThumb
								{
									OFFSET 0.000000 0.000000 0.000000
									CHANNELS 3 Zrotation Yrotation Xrotation
									End Site
									{
										OFFSET 0.000000 0.000000 0.000000
									}
								}
							}
						}
					}
				}
				JOINT RightShoulder
				{
					OFFSET 0.000000 0.000000 0.000000
					CHANNELS 3 Zrotation Yrotation Xrotation
					JOINT RightArm
					{
						OFFSET -18.819600 8.244300 -2.427900
						CHANNELS 3 Zrotation Yrotation Xrotation
						JOINT RightForeArm
						{
							OFFSET -31.451400 -0.000000 -0.000000
							CHANNELS 3 Zrotation Yrotation Xrotation
							JOINT RightHand
							{
								OFFSET -20.665020 -0.000000 -0.000000
								CHANNELS 3 Zrotation Yrotation Xrotation
								JOINT RightFingerBase
								{
									OFFSET 0.000000 0.000000 0.000000
									CHANNELS 3 Zrotation Yrotation Xrotation
									JOINT RightHandIndex1
									{
										OFFSET -3.735180 -0.000000 -0.000000
										CHANNELS 3 Zrotation Yrotation Xrotation
										End Site
										{
											OFFSET 0.000000 0.000000 0.000000
										}
									}
								}
								JOINT RThumb
								{
									OFFSET 0.000000 0.000000 0.000000
									CHANNELS 3 Zrotation Yrotation Xrotation
									End Site
									{
										OFFSET 0.000000 0.000000 0.000000
									}
								}
							}
						}
					}
				}
			}
		}
	}
}
MOTION
Frames:	6
Frame Time:	0.0333333
55.859622 98.277504 15.454146 20.339110 -25.981647 -13.040994 -0.398332 3.580588 4.319935 -9.322981 -9.514926 9.385034 0.591123 7.987486 25.485553 2.470372 0.683322 32.716192 3.503500 -11.468700 -33.877300 -2.704446 -1.980270 0.150117 13.136698 2.618232 -42.551292 -12.265382 -19.864721 67.665717 -1.296872 3.961868 7.168371 -0.755100 -5.550000 15.484100 -8.755401 -1.906365 8.890036 -0.089866 -3.755085 -2.504340 3.321019 -1.600745 -5.918102 -13.115581 -10.691718 -3.925771 3.819812 -13.349785 12.340360 3.081800 -7.255800 9.261300 -3.571043 2.863117 -2.492185 -84.107936 10.565340 42.981514 87.467696 -63.344074 -66.674679 -0.566422 -1.567609 -12.948943 17.098182 3.028949 1.450500 -7.125000 0.000000 0.000000 -7.135000 34.606200 1.832300 -0.414576 -1.910484 -1.311798 80.285961 -16.951266 48.007853 -127.472793 55.258398 -95.134105 0.771911 -1.026525 -5.081192 -6.463295 19.563429 -2.526800 7.125000 0.000000 0.000000 13.630300 -9.654000 11.490300 
50.609952 100.069074 22.045626 23.485444 -32.382472 -14.859542 -0.873841 3.588902 4.362793 -15.014200 -14.134040 13.432689 0.541191 8.338425 26.178243 4.465221 -1.321044 43.813027 0.392500 -4.022900 -11.141200 -2.459760 -1.982603 0.227608 13.569404 3.748755 -36.482593 -11.712590 -19.331385 66.004226 -1.676966 5.891892 3.884271 -0.771200 -5.607500 15.649600 -4.958511 -0.362328 5.407112 -0.427686 -1.043048 -2.238635 0.112998 -0.386559 -3.907456 -12.702874 -10.928270 -4.548409 2.864444 -13.558681 11.757264 2.730300 -7.375900 8.979600 -3.700307 2.959432 -2.620278 -81.547576 11.974764 38.323835 81.303550 -62.537988 -62.161080 -0.720029 -1.647724 -10.293468 17.651548 2.289391 1.291600 -7.125000 0.000000 0.000000 -6.531900 33.963600 1.778100 -0.369792 -2.080401 -1.282035 78.768876 -14.968003 46.309713 -125.245943 56.180271 -93.478585 0.833568 -0.911177 -6.746626 -7.493044 18.667129 -2.777400 7.125000 0.000000 0.000000 12.959900 -10.533000 10.655900 
46.193238 98.961786 25.621920 45.046161 -26.826902 -23.739640 -0.420569 2.300555 2.766098 -38.975111 -17.696238 10.289276 2.592401 10.566146 33.542023 3.663103 0.310627 41.216071 0.321600 -3.645100 -10.080200 -2.478580 -1.832920 0.350662 -8.822680 0.394664 -38.813217 -13.420917 -20.153049 69.929402 -2.977966 13.559785 1.421594 -1.057800 -6.539500 18.358100 -26.091664 0.050866 5.442283 -1.867650 -2.453653 -2.619198 5.742950 -0.700241 -4.398012 -13.210099 -11.599956 -5.507045 4.033058 -14.309046 9.980879 2.883400 -7.512900 8.466000 -4.068024 3.032371 -2.938334 -79.079295 14.524954 33.145999 78.036401 -61.963764 -59.386248 -0.778379 -1.821885 -9.771205 19.500612 3.866478 2.093900 -7.125000 0.000000 0.000000 -5.117300 35.902700 1.148000 -0.369777 -1.838944 -1.393604 76.901790 -9.734776 44.825369 -121.576745 57.591104 -91.052691 0.934459 -0.804328 -7.152898 -7.764392 18.478428 -2.866300 7.125000 0.000000 0.000000 12.721600 -10.779800 10.383700 
39.472992 102.236376 30.157452 23.859219 -42.418105 -13.348770 -0.526547 2.431039 2.689142 -16.110799 -13.927888 1.726284 5.788616 13.972026 45.649108 0.901387 4.559382 27.751965 0.180900 -2.739600 -7.554700 -2.161427 -1.881596 0.709361 19.703410 8.297683 -24.824354 -9.243089 -17.285221 58.311741 -2.071838 7.611599 1.412358 -2.100500 -9.072300 26.021700 -1.158556 1.374326 6.123024 0.311264 1.515775 -2.442401 1.299449 1.038786 -4.718576 -12.651010 -11.592361 -6.234524 4.429081 -14.178860 9.705876 3.198300 -7.398200 8.837500 -3.382830 3.044974 -2.950794 -77.698428 21.249898 29.433937 82.529651 -63.239721 -63.139508 -0.831268 -1.781859 -9.130427 20.185823 3.620162 2.065700 -7.125000 0.000000 0.000000 -4.497400 35.643000 1.036700 0.069561 -1.698478 -1.356990 73.835687 -3.456254 44.654228 -117.650546 58.603188 -88.254793 0.986926 -0.741670 -7.205865 -8.331592 18.322978 -3.045600 7.125000 0.000000 0.000000 12.321600 -10.939100 9.999500 
33.479940 103.149576 33.532818 23.111968 -45.628135 -12.109006 -0.347224 1.882162 1.971327 -15.208631 -12.895111 -6.342013 7.374609 15.403477 51.363802 -0.185163 4.886433 18.451569 0.689700 -5.309300 -14.793000 -1.784500 -1.898095 0.914664 22.618990 8.721361 -17.427542 -6.864446 -15.332028 50.407810 -2.013651 7.235029 2.536517 -1.173800 -6.876800 19.351000 -0.273632 1.428915 7.103997 0.512545 1.643350 -2.290094 1.598078 1.157744 -4.662351 -11.718527 -11.160755 -6.309339 4.775532 -13.664418 8.493230 3.257100 -7.026400 8.147000 -3.106102 3.155887 -3.095208 -75.084429 29.163464 28.715320 88.947850 -64.810219 -67.860084 -0.788956 -1.709787 -13.216094 20.675223 3.090366 1.854500 -7.125000 0.000000 0.000000 -3.989900 34.946000 0.987000 0.152206 -1.678267 -1.268298 74.251254 3.490641 45.093956 -115.553573 59.097352 -86.754973 1.034041 -0.889575 -3.189732 -8.838546 20.019228 -3.535100 7.125000 0.000000 0.000000 11.939800 -9.138700 10.120100 
27.059532 104.284860 36.874590 21.287695 -48.304240 -10.091083 -0.228274 1.379407 1.325676 -14.162099 -12.519002 -14.462145 7.648973 16.018527 52.962419 -0.234308 2.963563 9.584174 1.070300 -6.576800 -18.467500 -1.418605 -1.929619 1.177621 25.585646 9.227592 -10.014137 -4.846566 -13.275528 43.153742 -1.891552 6.910183 6.476253 -1.475100 -7.674400 21.729500 0.976907 1.660223 8.028625 0.654099 2.070549 -2.180898 1.687827 1.392465 -4.778645 -12.677464 -12.754294 -6.552453 6.523966 -15.652018 7.424659 3.928000 -7.816500 8.414500 -2.911719 3.388611 -3.277603 -73.306201 35.743253 30.551492 92.435323 -65.639020 -70.207330 -0.677371 -1.678940 -15.635474 19.890280 3.571182 1.937000 -7.125000 0.000000 0.000000 -4.722100 35.357600 1.121700 -0.043683 -1.547486 -1.081162 76.574974 6.314495 45.122031 -120.464680 57.693288 -90.222700 0.989218 -0.955722 -3.110508 -9.200946 20.117597 -3.678000 7.125000 0.000000 0.000000 11.741600 -8.948400 9.990100 
